<svg width="32" height="32" viewBox="0 0 32 32" fill="none" xmlns="http://www.w3.org/2000/svg">
<path d="M6.30933 26.1332C5.69695 26.1322 5.10998 25.8883 4.67709 25.4552C4.24419 25.0221 4.0007 24.4349 4 23.8226V11.1092C4.00176 10.4973 4.24563 9.91094 4.67833 9.47823C5.11103 9.04553 5.6974 8.80166 6.30933 8.7999H9.3L12.428 5.67457C12.6447 5.45728 12.9385 5.33457 13.2453 5.33324H17.8667C18.1739 5.33542 18.4677 5.4591 18.684 5.67724L21.8107 8.7999H24.8C25.4119 8.80166 25.9983 9.04553 26.431 9.47823C26.8637 9.91094 27.1076 10.4973 27.1093 11.1092V23.8226C27.1086 24.4349 26.8651 25.0221 26.4322 25.4552C25.9994 25.8883 25.4124 26.1322 24.8 26.1332H6.30933ZM6.30933 23.8239H24.8V11.1092H21.3333C21.1816 11.1104 21.0311 11.0814 20.8908 11.0237C20.7504 10.966 20.623 10.8808 20.516 10.7732L17.388 7.64524H13.7227L10.596 10.7732C10.4886 10.8807 10.361 10.9658 10.2204 11.0235C10.0799 11.0812 9.92926 11.1103 9.77733 11.1092H6.31067L6.30933 23.8239ZM10.9333 16.8879C10.9499 15.6672 11.4423 14.5011 12.3057 13.638C13.1691 12.7748 14.3353 12.2828 15.556 12.2666C16.7761 12.2831 17.9417 12.7752 18.8045 13.6381C19.6674 14.5009 20.1594 15.6664 20.176 16.8866C20.1605 18.1075 19.6689 19.2742 18.806 20.1381C17.9431 21.0021 16.777 21.495 15.556 21.5119C14.3349 21.4953 13.1685 21.0028 12.3051 20.1392C11.4417 19.2755 10.9495 18.109 10.9333 16.8879ZM13.248 16.8879C13.2635 17.4955 13.5115 18.074 13.9409 18.5042C14.3703 18.9344 14.9484 19.1834 15.556 19.1999C16.1641 19.184 16.7428 18.9353 17.1728 18.5051C17.6028 18.0749 17.8512 17.496 17.8667 16.8879C17.8514 16.28 17.6031 15.7012 17.173 15.2713C16.7428 14.8415 16.1639 14.5934 15.556 14.5786C14.9481 14.5934 14.3692 14.8415 13.939 15.2713C13.5089 15.7012 13.2606 16.28 13.2453 16.8879H13.248Z" fill="#555555"/>
</svg>
