<svg width="14" height="14" viewBox="0 0 14 14" fill="none" xmlns="http://www.w3.org/2000/svg">
<path fill-rule="evenodd" clip-rule="evenodd" d="M0.599976 6.99999C0.599976 5.73419 0.975329 4.49682 1.67857 3.44434C2.38181 2.39187 3.38135 1.57157 4.5508 1.08716C5.72025 0.602764 7.00708 0.476023 8.24855 0.722968C9.49003 0.969913 10.6304 1.57945 11.5255 2.47451C12.4205 3.36957 13.0301 4.50994 13.277 5.75142C13.5239 6.99289 13.3972 8.27972 12.9128 9.44917C12.4284 10.6186 11.6081 11.6182 10.5556 12.3214C9.50315 13.0246 8.26578 13.4 6.99998 13.4C5.30329 13.3977 3.67676 12.7227 2.47702 11.5229C1.27729 10.3232 0.602269 8.69668 0.599976 6.99999ZM1.88064 6.99999C1.88025 8.01291 2.18027 9.00319 2.74275 9.84557C3.30523 10.6879 4.10491 11.3446 5.04064 11.7324C5.97636 12.1203 7.00609 12.2219 7.99957 12.0244C8.99305 11.827 9.90565 11.3393 10.6219 10.6231C11.3382 9.9069 11.826 8.99436 12.0236 8.00091C12.2212 7.00745 12.1197 5.97771 11.732 5.04194C11.3443 4.10616 10.6877 3.3064 9.84544 2.74381C9.00313 2.18121 8.01289 1.88106 6.99998 1.88133C5.64274 1.88256 4.34143 2.42222 3.38166 3.38187C2.42189 4.34152 1.88205 5.64276 1.88064 6.99999ZM6.33331 6.33333H7.66664V10.3333H6.33331V6.33333ZM7.66664 3.66666H6.33331V4.99999H7.66664V3.66666Z" fill="#555555"/>
</svg>
